<svg xmlns="http://www.w3.org/2000/svg" viewBox="0 0 1920 1080" width="1920" height="1080">
  <defs>
    <linearGradient id="heroGradient" x1="0%" y1="0%" x2="100%" y2="100%">
      <stop offset="0%" style="stop-color:#1E40AF;stop-opacity:0.9" />
      <stop offset="30%" style="stop-color:#8B5CF6;stop-opacity:0.7" />
      <stop offset="70%" style="stop-color:#F97316;stop-opacity:0.6" />
      <stop offset="100%" style="stop-color:#F59E0B;stop-opacity:0.8" />
    </linearGradient>
    <pattern id="grid" width="100" height="100" patternUnits="userSpaceOnUse">
      <path d="M 100 0 L 0 0 0 100" fill="none" stroke="rgba(255,255,255,0.1)" stroke-width="1"/>
    </pattern>
    <filter id="glow">
      <feGaussianBlur stdDeviation="2" result="coloredBlur"/>
      <feMerge>
        <feMergeNode in="coloredBlur"/>
        <feMergeNode in="SourceGraphic"/>
      </feMerge>
    </filter>
  </defs>
  
  <!-- Background -->
  <rect width="1920" height="1080" fill="url(#heroGradient)"/>
  <rect width="1920" height="1080" fill="url(#grid)" opacity="0.3"/>
  
  <!-- Futuristic Tech Elements -->
  <g opacity="0.6">
    <!-- Data Flow Lines -->
    <path d="M0,200 Q480,100 960,200 T1920,200" fill="none" stroke="rgba(255,255,255,0.4)" stroke-width="2" filter="url(#glow)"/>
    <path d="M0,400 Q480,300 960,400 T1920,400" fill="none" stroke="rgba(255,255,255,0.3)" stroke-width="2"/>
    <path d="M0,600 Q480,500 960,600 T1920,600" fill="none" stroke="rgba(255,255,255,0.2)" stroke-width="2"/>
    
    <!-- Circuit Board Elements -->
    <g transform="translate(100,100)" opacity="0.4">
      <rect x="0" y="0" width="80" height="80" fill="none" stroke="rgba(255,255,255,0.3)" stroke-width="2" rx="5"/>
      <circle cx="40" cy="40" r="20" fill="none" stroke="rgba(255,255,255,0.5)" stroke-width="2"/>
      <rect x="20" y="20" width="40" height="40" fill="rgba(255,255,255,0.1)" rx="5"/>
    </g>
    
    <!-- Server Rack Representation -->
    <g transform="translate(1600,200)" opacity="0.3">
      <rect x="0" y="0" width="200" height="400" fill="rgba(255,255,255,0.1)" stroke="rgba(255,255,255,0.3)" stroke-width="2" rx="10"/>
      <rect x="20" y="20" width="160" height="30" fill="rgba(255,255,255,0.2)" rx="5"/>
      <rect x="20" y="70" width="160" height="30" fill="rgba(255,255,255,0.2)" rx="5"/>
      <rect x="20" y="120" width="160" height="30" fill="rgba(255,255,255,0.2)" rx="5"/>
      <rect x="20" y="170" width="160" height="30" fill="rgba(255,255,255,0.2)" rx="5"/>
    </g>
    
    <!-- Quantum Network Nodes -->
    <g opacity="0.5">
      <circle cx="200" cy="300" r="8" fill="rgba(255,255,255,0.8)" filter="url(#glow)"/>
      <circle cx="600" cy="250" r="6" fill="rgba(255,255,255,0.6)"/>
      <circle cx="1000" cy="350" r="10" fill="rgba(255,255,255,0.7)" filter="url(#glow)"/>
      <circle cx="1400" cy="300" r="7" fill="rgba(255,255,255,0.5)"/>
      
      <!-- Connecting Lines -->
      <line x1="200" y1="300" x2="600" y2="250" stroke="rgba(255,255,255,0.3)" stroke-width="1"/>
      <line x1="600" y1="250" x2="1000" y2="350" stroke="rgba(255,255,255,0.3)" stroke-width="1"/>
      <line x1="1000" y1="350" x2="1400" y2="300" stroke="rgba(255,255,255,0.3)" stroke-width="1"/>
    </g>
    
    <!-- Floating Data Particles -->
    <g opacity="0.4">
      <circle cx="300" cy="500" r="3" fill="rgba(255,255,255,0.8)">
        <animate attributeName="cy" values="500;450;500" dur="3s" repeatCount="indefinite"/>
      </circle>
      <circle cx="800" cy="600" r="2" fill="rgba(255,255,255,0.6)">
        <animate attributeName="cy" values="600;550;600" dur="4s" repeatCount="indefinite"/>
      </circle>
      <circle cx="1200" cy="700" r="4" fill="rgba(255,255,255,0.7)">
        <animate attributeName="cy" values="700;650;700" dur="2.5s" repeatCount="indefinite"/>
      </circle>
    </g>
  </g>
  
  <!-- Professional overlay for readability -->
  <rect width="1920" height="1080" fill="rgba(0,0,0,0.2)"/>
</svg>