<svg xmlns="http://www.w3.org/2000/svg" viewBox="0 0 800 600" width="800" height="600">
  <defs>
    <linearGradient id="cleanGradient" x1="0%" y1="0%" x2="100%" y2="100%">
      <stop offset="0%" style="stop-color:#EBF8FF;stop-opacity:1" />
      <stop offset="100%" style="stop-color:#BEE3F8;stop-opacity:1" />
    </linearGradient>
  </defs>
  
  <!-- Background -->
  <rect width="800" height="600" fill="url(#cleanGradient)"/>
  
  <!-- Professional Cleaning Cart -->
  <rect x="100" y="350" width="150" height="120" fill="#4A5568" rx="5"/>
  <rect x="110" y="360" width="130" height="100" fill="#718096" rx="3"/>
  
  <!-- Cart Wheels -->
  <circle cx="125" cy="480" r="15" fill="#2D3748"/>
  <circle cx="225" cy="480" r="15" fill="#2D3748"/>
  <circle cx="125" cy="480" r="8" fill="#4A5568"/>
  <circle cx="225" cy="480" r="8" fill="#4A5568"/>
  
  <!-- Cleaning Supplies in Cart -->
  <!-- Spray Bottles -->
  <rect x="120" y="370" width="15" height="40" fill="#3182CE" rx="2"/>
  <rect x="115" y="365" width="5" height="10" fill="#2B6CB0"/>
  <rect x="140" y="370" width="15" height="40" fill="#38A169" rx="2"/>
  <rect x="135" y="365" width="5" height="10" fill="#2F855A"/>
  
  <!-- Towels/Rags -->
  <rect x="170" y="380" width="30" height="20" fill="#FED7D7" rx="5"/>
  <rect x="175" y="375" width="30" height="20" fill="#FEEBC8" rx="5"/>
  <rect x="180" y="370" width="30" height="20" fill="#C6F6D5" rx="5"/>
  
  <!-- Bucket -->
  <ellipse cx="220" cy="420" rx="20" ry="25" fill="#E2E8F0"/>
  <ellipse cx="220" cy="415" rx="18" ry="23" fill="#CBD5E0"/>
  <rect x="210" y="410" width="20" height="3" fill="#A0AEC0"/>
  
  <!-- Mop -->
  <rect x="50" y="200" width="8" height="200" fill="#8B7355"/>
  <ellipse cx="54" cy="190" rx="25" ry="15" fill="#F7FAFC"/>
  
  <!-- Vacuum Cleaner -->
  <ellipse cx="350" cy="430" rx="40" ry="50" fill="#2D3748"/>
  <rect x="330" y="380" width="40" height="50" fill="#4A5568" rx="5"/>
  <rect x="340" y="350" width="20" height="40" fill="#718096"/>
  <circle cx="350" cy="340" r="8" fill="#A0AEC0"/>
  
  <!-- Vacuum Cord -->
  <path d="M380,400 Q420,380 450,400 Q480,420 500,400" fill="none" stroke="#2D3748" stroke-width="3"/>
  
  <!-- Floor Polisher -->
  <circle cx="550" cy="450" r="35" fill="#4A5568"/>
  <circle cx="550" cy="450" r="25" fill="#718096"/>
  <rect x="540" y="380" width="20" height="70" fill="#8B7355"/>
  <rect x="535" y="370" width="30" height="15" fill="#A0926B" rx="7"/>
  
  <!-- Cleaning Solution Containers -->
  <rect x="600" y="380" width="40" height="60" fill="#FFFFFF" rx="5"/>
  <rect x="605" y="385" width="30" height="50" fill="#3182CE" rx="3"/>
  <rect x="610" y="375" width="20" height="10" fill="#2B6CB0" rx="2"/>
  
  <rect x="650" y="380" width="40" height="60" fill="#FFFFFF" rx="5"/>
  <rect x="655" y="385" width="30" height="50" fill="#38A169" rx="3"/>
  <rect x="660" y="375" width="20" height="10" fill="#2F855A" rx="2"/>
  
  <!-- Sparkle Effects for Cleanliness -->
  <g opacity="0.7">
    <circle cx="300" cy="150" r="3" fill="#FFD700">
      <animate attributeName="opacity" values="1;0.3;1" dur="2s" repeatCount="indefinite"/>
    </circle>
    <circle cx="450" cy="200" r="2" fill="#FFD700">
      <animate attributeName="opacity" values="0.3;1;0.3" dur="1.5s" repeatCount="indefinite"/>
    </circle>
    <circle cx="200" cy="180" r="2.5" fill="#FFD700">
      <animate attributeName="opacity" values="1;0.2;1" dur="2.5s" repeatCount="indefinite"/>
    </circle>
    <circle cx="600" cy="120" r="2" fill="#FFD700">
      <animate attributeName="opacity" values="0.5;1;0.5" dur="1.8s" repeatCount="indefinite"/>
    </circle>
  </g>
  
  <!-- Clean Floor Reflection -->
  <ellipse cx="400" cy="520" rx="350" ry="40" fill="rgba(255,255,255,0.3)" opacity="0.6"/>
</svg>