<svg xmlns="http://www.w3.org/2000/svg" viewBox="0 0 800 600" width="800" height="600">
  <defs>
    <linearGradient id="furnitureGradient" x1="0%" y1="0%" x2="100%" y2="100%">
      <stop offset="0%" style="stop-color:#F7FAFC;stop-opacity:1" />
      <stop offset="100%" style="stop-color:#E2E8F0;stop-opacity:1" />
    </linearGradient>
  </defs>
  
  <!-- Background -->
  <rect width="800" height="600" fill="url(#furnitureGradient)"/>
  
  <!-- Modern Conference Table -->
  <ellipse cx="400" cy="450" rx="250" ry="80" fill="#8B7355"/>
  <ellipse cx="400" cy="440" rx="250" ry="80" fill="#A0926B"/>
  
  <!-- Office Chairs around table -->
  <!-- Chair 1 -->
  <g transform="translate(200,350)">
    <rect x="0" y="20" width="60" height="80" fill="#2D3748" rx="30"/>
    <rect x="5" y="25" width="50" height="70" fill="#4A5568" rx="25"/>
    <rect x="20" y="100" width="20" height="40" fill="#718096"/>
    <circle cx="30" cy="140" r="8" fill="#A0AEC0"/>
  </g>
  
  <!-- Chair 2 -->
  <g transform="translate(350,320)">
    <rect x="0" y="20" width="60" height="80" fill="#2D3748" rx="30"/>
    <rect x="5" y="25" width="50" height="70" fill="#4A5568" rx="25"/>
    <rect x="20" y="100" width="20" height="40" fill="#718096"/>
    <circle cx="30" cy="140" r="8" fill="#A0AEC0"/>
  </g>
  
  <!-- Chair 3 -->
  <g transform="translate(500,350)">
    <rect x="0" y="20" width="60" height="80" fill="#2D3748" rx="30"/>
    <rect x="5" y="25" width="50" height="70" fill="#4A5568" rx="25"/>
    <rect x="20" y="100" width="20" height="40" fill="#718096"/>
    <circle cx="30" cy="140" r="8" fill="#A0AEC0"/>
  </g>
  
  <!-- Executive Desk -->
  <rect x="50" y="150" width="200" height="100" fill="#8B7355" rx="5"/>
  <rect x="50" y="150" width="200" height="15" fill="#A0926B" rx="5"/>
  
  <!-- Desk Chair -->
  <g transform="translate(80,80)">
    <rect x="0" y="20" width="80" height="100" fill="#1A202C" rx="40"/>
    <rect x="5" y="25" width="70" height="90" fill="#2D3748" rx="35"/>
    <rect x="30" y="120" width="20" height="50" fill="#4A5568"/>
    <circle cx="40" cy="170" r="12" fill="#718096"/>
  </g>
  
  <!-- Filing Cabinet -->
  <rect x="600" y="200" width="120" height="180" fill="#4A5568" rx="5"/>
  <rect x="610" y="210" width="100" height="35" fill="#2D3748" rx="2"/>
  <rect x="610" y="255" width="100" height="35" fill="#2D3748" rx="2"/>
  <rect x="610" y="300" width="100" height="35" fill="#2D3748" rx="2"/>
  <rect x="610" y="345" width="100" height="35" fill="#2D3748" rx="2"/>
  
  <!-- Handles -->
  <circle cx="690" cy="227" r="3" fill="#A0AEC0"/>
  <circle cx="690" cy="272" r="3" fill="#A0AEC0"/>
  <circle cx="690" cy="317" r="3" fill="#A0AEC0"/>
  <circle cx="690" cy="362" r="3" fill="#A0AEC0"/>
  
  <!-- Bookshelf -->
  <rect x="300" y="80" width="150" height="200" fill="#8B7355" rx="5"/>
  <rect x="310" y="90" width="130" height="30" fill="#A0926B"/>
  <rect x="310" y="130" width="130" height="30" fill="#A0926B"/>
  <rect x="310" y="170" width="130" height="30" fill="#A0926B"/>
  <rect x="310" y="210" width="130" height="30" fill="#A0926B"/>
  <rect x="310" y="250" width="130" height="20" fill="#A0926B"/>
  
  <!-- Books -->
  <rect x="315" y="92" width="12" height="26" fill="#E53E3E"/>
  <rect x="330" y="92" width="8" height="26" fill="#3182CE"/>
  <rect x="342" y="92" width="15" height="26" fill="#38A169"/>
  <rect x="360" y="92" width="10" height="26" fill="#D69E2E"/>
  
  <!-- Professional Lighting -->
  <ellipse cx="400" cy="50" rx="200" ry="30" fill="rgba(255,255,255,0.4)" opacity="0.8"/>
  
  <!-- Floor Shadows -->
  <ellipse cx="400" cy="520" rx="300" ry="40" fill="rgba(0,0,0,0.1)" opacity="0.6"/>
  <ellipse cx="150" cy="520" rx="120" ry="20" fill="rgba(0,0,0,0.1)" opacity="0.4"/>
  <ellipse cx="660" cy="520" rx="80" ry="15" fill="rgba(0,0,0,0.1)" opacity="0.4"/>
</svg>