<svg xmlns="http://www.w3.org/2000/svg" viewBox="0 0 800 600" width="800" height="600">
  <defs>
    <linearGradient id="innovationGradient" x1="0%" y1="0%" x2="100%" y2="100%">
      <stop offset="0%" style="stop-color:#1E1B4B;stop-opacity:1" />
      <stop offset="50%" style="stop-color:#3730A3;stop-opacity:1" />
      <stop offset="100%" style="stop-color:#7C3AED;stop-opacity:1" />
    </linearGradient>
    <filter id="innovationGlow">
      <feGaussianBlur stdDeviation="4" result="coloredBlur"/>
      <feMerge>
        <feMergeNode in="coloredBlur"/>
        <feMergeNode in="SourceGraphic"/>
      </feMerge>
    </filter>
  </defs>
  
  <!-- Background -->
  <rect width="800" height="600" fill="url(#innovationGradient)"/>
  
  <!-- Futuristic Light Bulb - Symbol of Innovation -->
  <g transform="translate(350,150)">
    <!-- Bulb Body -->
    <circle cx="50" cy="70" r="45" fill="none" stroke="#F59E0B" stroke-width="3" filter="url(#innovationGlow)"/>
    <circle cx="50" cy="70" r="35" fill="rgba(245,158,11,0.2)" filter="url(#innovationGlow)"/>
    
    <!-- Filament - AI/Tech Pattern -->
    <path d="M30,60 Q50,50 70,60 Q50,70 30,80 Q50,90 70,80" 
          fill="none" stroke="#F59E0B" stroke-width="2" opacity="0.8"/>
    <path d="M35,65 Q50,55 65,65 Q50,75 35,85" 
          fill="none" stroke="#F97316" stroke-width="2" opacity="0.6"/>
    
    <!-- Base -->
    <rect x="40" y="115" width="20" height="25" fill="#718096" rx="3"/>
    <rect x="35" y="140" width="30" height="8" fill="#4A5568" rx="4"/>
  </g>
  
  <!-- Digital Brain Network -->
  <g opacity="0.7">
    <!-- Neural Network Nodes -->
    <circle cx="200" cy="200" r="8" fill="#8B5CF6" filter="url(#innovationGlow)"/>
    <circle cx="600" cy="180" r="6" fill="#3B82F6" filter="url(#innovationGlow)"/>
    <circle cx="150" cy="300" r="7" fill="#10B981" filter="url(#innovationGlow)"/>
    <circle cx="650" cy="320" r="9" fill="#F59E0B" filter="url(#innovationGlow)"/>
    <circle cx="300" cy="400" r="5" fill="#EF4444" filter="url(#innovationGlow)"/>
    <circle cx="500" cy="420" r="8" fill="#8B5CF6" filter="url(#innovationGlow)"/>
    
    <!-- Connections -->
    <line x1="200" y1="200" x2="400" y2="220" stroke="rgba(139,92,246,0.6)" stroke-width="2"/>
    <line x1="400" y1="220" x2="600" y2="180" stroke="rgba(59,130,246,0.6)" stroke-width="2"/>
    <line x1="150" y1="300" x2="400" y2="220" stroke="rgba(16,185,129,0.6)" stroke-width="2"/>
    <line x1="400" y1="220" x2="650" y2="320" stroke="rgba(245,158,11,0.6)" stroke-width="2"/>
    <line x1="300" y1="400" x2="500" y2="420" stroke="rgba(239,68,68,0.6)" stroke-width="2"/>
    
    <!-- Pulsing Data Flow -->
    <circle cx="200" cy="200" r="3" fill="#FFFFFF">
      <animate attributeName="r" values="3;15;3" dur="2s" repeatCount="indefinite"/>
      <animate attributeName="opacity" values="0.8;0;0.8" dur="2s" repeatCount="indefinite"/>
    </circle>
  </g>
  
  <!-- Holographic Screens -->
  <g opacity="0.8">
    <!-- Screen 1 -->
    <rect x="80" y="350" width="150" height="100" fill="rgba(59,130,246,0.2)" 
          stroke="#3B82F6" stroke-width="2" rx="5" filter="url(#innovationGlow)"/>
    <rect x="90" y="360" width="130" height="8" fill="rgba(59,130,246,0.8)"/>
    <rect x="90" y="375" width="100" height="4" fill="rgba(59,130,246,0.6)"/>
    <rect x="90" y="385" width="80" height="4" fill="rgba(59,130,246,0.6)"/>
    <rect x="90" y="395" width="110" height="4" fill="rgba(59,130,246,0.6)"/>
    
    <!-- Screen 2 -->
    <rect x="570" y="380" width="150" height="100" fill="rgba(16,185,129,0.2)" 
          stroke="#10B981" stroke-width="2" rx="5" filter="url(#innovationGlow)"/>
    <rect x="580" y="390" width="130" height="8" fill="rgba(16,185,129,0.8)"/>
    <rect x="580" y="405" width="90" height="4" fill="rgba(16,185,129,0.6)"/>
    <rect x="580" y="415" width="120" height="4" fill="rgba(16,185,129,0.6)"/>
    <rect x="580" y="425" width="70" height="4" fill="rgba(16,185,129,0.6)"/>
  </g>
  
  <!-- Quantum Particles -->
  <g opacity="0.6">
    <circle cx="100" cy="100" r="2" fill="#F59E0B">
      <animate attributeName="cx" values="100;700;100" dur="8s" repeatCount="indefinite"/>
      <animate attributeName="opacity" values="0.3;1;0.3" dur="8s" repeatCount="indefinite"/>
    </circle>
    <circle cx="700" cy="150" r="3" fill="#8B5CF6">
      <animate attributeName="cx" values="700;100;700" dur="6s" repeatCount="indefinite"/>
      <animate attributeName="opacity" values="1;0.3;1" dur="6s" repeatCount="indefinite"/>
    </circle>
    <circle cx="150" cy="500" r="2.5" fill="#3B82F6">
      <animate attributeName="cy" values="500;100;500" dur="7s" repeatCount="indefinite"/>
      <animate attributeName="opacity" values="0.5;1;0.5" dur="7s" repeatCount="indefinite"/>
    </circle>
  </g>
  
  <!-- AI Robot/Assistant Silhouette -->
  <g transform="translate(50,450)" opacity="0.4">
    <rect x="0" y="40" width="60" height="80" fill="#CBD5E0" rx="10"/>
    <circle cx="30" cy="20" r="20" fill="#CBD5E0"/>
    <!-- Eyes -->
    <circle cx="20" cy="15" r="3" fill="#3B82F6"/>
    <circle cx="40" cy="15" r="3" fill="#3B82F6"/>
    <!-- Arms -->
    <rect x="-15" y="50" width="30" height="8" fill="#CBD5E0" rx="4"/>
    <rect x="45" y="50" width="30" height="8" fill="#CBD5E0" rx="4"/>
  </g>
  
  <!-- Rocket Ship - Future Progress -->
  <g transform="translate(650,50)" opacity="0.5">
    <path d="M15,0 L30,40 L20,40 L20,60 L10,60 L10,40 L0,40 Z" fill="#F59E0B"/>
    <rect x="8" y="35" width="14" height="10" fill="#EF4444"/>
    <path d="M15,60 L10,80 L20,80 Z" fill="#F97316"/>
    <!-- Exhaust -->
    <ellipse cx="15" cy="85" rx="5" ry="8" fill="rgba(239,68,68,0.6)">
      <animate attributeName="ry" values="8;15;8" dur="0.5s" repeatCount="indefinite"/>
    </ellipse>
  </g>
  
  <!-- DNA Helix - Representing Evolution/Innovation -->
  <g transform="translate(720,250)" opacity="0.6">
    <path d="M0,0 Q10,20 20,40 Q30,60 40,80 Q50,100 60,120" 
          fill="none" stroke="#10B981" stroke-width="3"/>
    <path d="M0,120 Q10,100 20,80 Q30,60 40,40 Q50,20 60,0" 
          fill="none" stroke="#3B82F6" stroke-width="3"/>
  </g>
</svg>