<svg xmlns="http://www.w3.org/2000/svg" viewBox="0 0 800 600" width="800" height="600">
  <defs>
    <linearGradient id="integrityGradient" x1="0%" y1="0%" x2="100%" y2="100%">
      <stop offset="0%" style="stop-color:#EBF4FF;stop-opacity:1" />
      <stop offset="100%" style="stop-color:#DBEAFE;stop-opacity:1" />
    </linearGradient>
  </defs>
  
  <!-- Background -->
  <rect width="800" height="600" fill="url(#integrityGradient)"/>
  
  <!-- Professional Meeting Room -->
  <rect x="50" y="450" width="700" height="100" fill="#8B7355" rx="5"/>
  <rect x="50" y="450" width="700" height="15" fill="#A0926B" rx="5"/>
  
  <!-- Two Professionals Shaking Hands -->
  <!-- Person 1 (Left) -->
  <g transform="translate(250,200)">
    <!-- Body -->
    <rect x="0" y="80" width="80" height="120" fill="#2D3748" rx="10"/>
    <rect x="10" y="90" width="60" height="30" fill="#4A5568" rx="5"/>
    <!-- Head -->
    <circle cx="40" cy="40" r="25" fill="#D69E2E"/>
    <!-- Arm extended for handshake -->
    <rect x="80" y="110" width="50" height="15" fill="#D69E2E" rx="7"/>
    <circle cx="130" cy="117" r="8" fill="#D69E2E"/>
  </g>
  
  <!-- Person 2 (Right) -->
  <g transform="translate(450,200)">
    <!-- Body -->
    <rect x="0" y="80" width="80" height="120" fill="#1A202C" rx="10"/>
    <rect x="10" y="90" width="60" height="30" fill="#2D3748" rx="5"/>
    <!-- Head -->
    <circle cx="40" cy="40" r="25" fill="#A0AEC0"/>
    <!-- Arm extended for handshake -->
    <rect x="-50" y="110" width="50" height="15" fill="#A0AEC0" rx="7"/>
    <circle cx="-50" cy="117" r="8" fill="#A0AEC0"/>
  </g>
  
  <!-- Handshake Connection -->
  <ellipse cx="400" cy="317" rx="20" ry="12" fill="#F7FAFC" stroke="#CBD5E0" stroke-width="2"/>
  
  <!-- Professional Documents/Contract -->
  <rect x="320" y="420" width="160" height="100" fill="#FFFFFF" rx="5" stroke="#E2E8F0" stroke-width="2"/>
  <rect x="330" y="430" width="140" height="5" fill="#CBD5E0" rx="2"/>
  <rect x="330" y="445" width="100" height="3" fill="#E2E8F0" rx="1"/>
  <rect x="330" y="455" width="120" height="3" fill="#E2E8F0" rx="1"/>
  <rect x="330" y="465" width="80" height="3" fill="#E2E8F0" rx="1"/>
  
  <!-- Signature Lines -->
  <path d="M340,485 Q360,480 380,485" fill="none" stroke="#3182CE" stroke-width="2"/>
  <path d="M420,485 Q440,480 460,485" fill="none" stroke="#38A169" stroke-width="2"/>
  
  <!-- Trust Symbols - Shields -->
  <g transform="translate(100,100)" opacity="0.7">
    <path d="M30,0 L60,15 L60,45 L30,60 L0,45 L0,15 Z" fill="#3182CE" opacity="0.3"/>
    <path d="M30,5 L55,18 L55,42 L30,55 L5,42 L5,18 Z" fill="none" stroke="#3182CE" stroke-width="2"/>
    <path d="M20,25 L27,32 L42,17" fill="none" stroke="#3182CE" stroke-width="3" stroke-linecap="round"/>
  </g>
  
  <g transform="translate(650,120)" opacity="0.7">
    <path d="M30,0 L60,15 L60,45 L30,60 L0,45 L0,15 Z" fill="#38A169" opacity="0.3"/>
    <path d="M30,5 L55,18 L55,42 L30,55 L5,42 L5,18 Z" fill="none" stroke="#38A169" stroke-width="2"/>
    <path d="M20,25 L27,32 L42,17" fill="none" stroke="#38A169" stroke-width="3" stroke-linecap="round"/>
  </g>
  
  <!-- Professional Building Silhouette in Background -->
  <g opacity="0.2">
    <rect x="50" y="50" width="30" height="150" fill="#4A5568"/>
    <rect x="90" y="80" width="40" height="120" fill="#4A5568"/>
    <rect x="140" y="60" width="35" height="140" fill="#4A5568"/>
    
    <rect x="620" y="40" width="35" height="160" fill="#4A5568"/>
    <rect x="665" y="70" width="45" height="130" fill="#4A5568"/>
    <rect x="720" y="50" width="30" height="150" fill="#4A5568"/>
  </g>
  
  <!-- Excellence Rays -->
  <g opacity="0.4">
    <path d="M400,100 L390,80 L410,80 Z" fill="#F59E0B"/>
    <path d="M400,100 L420,85 L415,105 Z" fill="#F59E0B"/>
    <path d="M400,100 L380,85 L385,105 Z" fill="#F59E0B"/>
    <path d="M400,100 L405,75 L395,75 Z" fill="#F59E0B"/>
  </g>
  
  <!-- Professional Floor Reflection -->
  <ellipse cx="400" cy="570" rx="300" ry="20" fill="rgba(0,0,0,0.1)" opacity="0.5"/>
</svg>